<?xml version="1.0" encoding="utf-8"?>
<!-- Generator: Adobe Illustrator 16.0.4, SVG Export Plug-In . SVG Version: 6.00 Build 0)  -->
<!DOCTYPE svg PUBLIC "-//W3C//DTD SVG 1.1//EN" "http://www.w3.org/Graphics/SVG/1.1/DTD/svg11.dtd">
<svg version="1.1" id="Ebene_1" xmlns="http://www.w3.org/2000/svg" xmlns:xlink="http://www.w3.org/1999/xlink" x="0px" y="0px"
	 width="73px" height="73px" viewBox="0 0 73 73" enable-background="new 0 0 73 73" xml:space="preserve">
<g>
	<g>
		<path fill="#FFFFFF" d="M36.125,73C16.206,73,0,56.045,0,36.125C0,16.206,16.206,0,36.125,0
			C56.045,0,73,16.206,73,36.125C73,56.045,56.045,73,36.125,73z M36.125,4C18.411,4,4,18.411,4,36.125
			S18.411,68.25,36.125,68.25S68.25,53.839,68.25,36.125S53.839,4,36.125,4z"/>
	</g>
</g>
<g>
	<path fill="#FFFFFF" d="M40.191,23.229L29.228,34.193h23.118v3.569H29.228l10.964,10.964H35.22L22.471,35.978L35.22,23.229H40.191z
		"/>
</g>
</svg>
