<?xml version="1.0" encoding="utf-8"?>
<!-- Generator: Adobe Illustrator 16.0.4, SVG Export Plug-In . SVG Version: 6.00 Build 0)  -->
<!DOCTYPE svg PUBLIC "-//W3C//DTD SVG 1.1//EN" "http://www.w3.org/Graphics/SVG/1.1/DTD/svg11.dtd">
<svg version="1.1" id="Ebene_1" xmlns="http://www.w3.org/2000/svg" xmlns:xlink="http://www.w3.org/1999/xlink" x="0px" y="0px"
	 width="73px" height="73px" viewBox="0 0 73 73" enable-background="new 0 0 73 73" xml:space="preserve">
<g>
	<g>
		<path fill="#FFFFFF" d="M0,36.125C0,16.206,16.205,0,36.125,0S72.25,16.206,72.25,36.125c0,19.92-16.205,36.125-36.125,36.125
			S0,56.045,0,36.125z M4,36.125C4,53.839,18.411,68.25,36.125,68.25S68.25,53.839,68.25,36.125S53.839,4,36.125,4
			S4,18.411,4,36.125z"/>
	</g>
</g>
<g>
	<path fill="#FFFFFF" d="M37.03,23.229l12.749,12.749L37.03,48.727h-4.972l10.964-10.964H19.904v-3.569h23.118L32.059,23.229H37.03z
		"/>
</g>
</svg>
